<svg xmlns="http://www.w3.org/2000/svg" aria-hidden="true" style="width: 0; height: 0; position: absolute;"><symbol id="auth0" viewBox="0 0 300 64">
<path d="M69.4472 45.1602L79.4013 19.0701H83.2377L93.1533 45.1602H89.6896L86.9327 38.1172H75.5649L72.8081 45.1602H69.4472ZM85.956 35.174L81.2199 22.6109L76.5224 35.174H85.956Z" fill="tomato"></path>
<path d="M107.548 26.1517H110.607V45.1602H107.959L107.548 42.6283C106.43 44.0421 104.605 45.3851 101.475 45.3851C97.2981 45.3851 93.9822 43.0396 93.9822 36.7355V26.1517H97.0411V36.5492C97.0411 40.5013 98.8275 42.5898 101.996 42.5898C105.459 42.5898 107.548 39.9422 107.548 35.656V26.1517Z" fill="tomato"></path>
<path d="M112.072 28.9471V26.1517H115.503V20.8244H118.562V26.1517H123.485V28.9471H118.562V40.1671C118.562 41.7672 119.121 42.3648 120.76 42.3648H123.78V45.1602H120.464C116.814 45.1602 115.51 43.5601 115.51 40.2057V28.9471H112.072Z" fill="tomato"></path>
<path d="M142.474 34.5764V45.1602H139.415V34.7627C139.415 30.8107 137.513 28.7222 134.236 28.7222C130.695 28.7222 128.497 31.3697 128.497 35.656V45.1602H125.438V19.0701H128.497V29.2812C129.615 27.4948 131.556 25.9268 134.756 25.9268C139.004 25.9268 142.467 28.2723 142.467 34.5764H142.474Z" fill="tomato"></path>
<path d="M144.601 31.5175C144.601 24.1018 148.624 18.8452 154.516 18.8452C160.409 18.8452 164.393 24.1018 164.393 31.5175V32.7128C164.393 40.5013 160.371 45.3851 154.516 45.3851C148.662 45.3851 144.601 40.5013 144.601 32.7128V31.5175ZM161.225 31.6268C161.225 25.4384 158.539 21.7112 154.516 21.7112C150.494 21.7112 147.769 25.4384 147.769 31.6268V32.5971C147.769 38.7855 150.455 42.5126 154.516 42.5126C158.578 42.5126 161.225 38.7855 161.225 32.5971V31.6268Z" fill="tomato"></path>
<path d="M195.438 35.656C195.438 41.4716 191.563 45.3851 186.307 45.3851C183.1 45.3851 180.941 44.0806 179.784 42.2556L179.373 45.1602H176.725V19.0701H179.784V29.2105C181.05 27.4562 183.1 25.9332 186.307 25.9332C191.563 25.9332 195.438 29.474 195.438 35.6624V35.656ZM192.309 35.656C192.309 31.5175 189.777 28.6515 186.011 28.6515C182.245 28.6515 179.752 31.524 179.752 35.5853C179.752 39.6466 182.284 42.6669 186.011 42.6669C189.738 42.6669 192.309 39.7944 192.309 35.6624V35.656Z" fill="tomato"></path>
<path d="M195.322 26.1517H198.568L204.422 41.3238L210.09 26.1517H213.335L204.576 48.3669C203.381 51.4257 202.674 52.6145 199.994 52.6145H196.344V49.8192H199.062C200.817 49.8192 201.112 49.3693 201.819 47.5829L202.751 45.2695L195.335 26.1517H195.322Z" fill="tomato"></path>
<path d="M236.173 45.3851C228.828 45.3851 223.726 39.7944 223.726 32.1152C223.726 24.4359 228.835 18.8452 236.173 18.8452C243.512 18.8452 248.621 24.4359 248.621 32.1152C248.621 39.7944 243.512 45.3851 236.173 45.3851ZM236.173 42.4034C241.616 42.4034 245.305 38.1172 245.305 32.1152C245.305 26.1131 241.616 21.8269 236.173 21.8269C230.73 21.8269 227.042 26.1131 227.042 32.1152C227.042 38.1172 230.73 42.4034 236.173 42.4034Z" fill="tomato"></path>
<path d="M250.966 19.0701H254.025V36.2536L263.568 26.1517H267.334L259.918 34.0173L267.854 45.1602H264.166L257.868 36.215L254.032 40.1671V45.1602H250.973V19.0701H250.966Z" fill="tomato"></path>
<path d="M268.105 28.9471V26.1517H271.536V20.8244H274.595V26.1517H279.518V28.9471H274.595V40.1671C274.595 41.7672 275.154 42.3648 276.793 42.3648H279.813V45.1602H276.497C272.847 45.1602 271.543 43.5601 271.543 40.2057V28.9471H268.105Z" fill="tomato"></path>
<path d="M299.439 42.3648V45.1602H297.761C295.23 45.1602 294.368 44.0806 294.33 42.217C293.135 43.9328 291.239 45.3851 287.955 45.3851C283.778 45.3851 280.951 43.2966 280.951 39.8329C280.951 36.0287 283.598 33.9081 288.591 33.9081H294.182V32.6035C294.182 30.1423 292.428 28.6515 289.446 28.6515C286.76 28.6515 284.973 29.9174 284.601 31.8581H281.542C281.992 28.131 285.006 25.9332 289.594 25.9332C294.439 25.9332 297.234 28.3559 297.234 32.7899V41.0989C297.234 42.1078 297.607 42.3648 298.462 42.3648H299.439ZM288.296 36.4785C285.577 36.4785 284.048 37.4874 284.048 39.6466C284.048 41.5102 285.648 42.7761 288.186 42.7761C291.991 42.7761 294.188 40.5784 294.188 37.4103V36.4785H288.296Z" fill="tomato"></path>
<path d="M3.37163 27.7823C13.8466 26.0536 22.0585 17.3818 23.7786 6.88966L24.3558 1.84681C24.4986 1.04545 23.9557 -0.0707301 22.9442 0.00940596C15.0295 0.627599 7.56046 3.24347 3.40592 4.9435C1.34294 5.79065 0 7.79405 0 10.0264V26.4772C0 27.4503 0.874338 28.1944 1.8344 28.0399L3.37163 27.788V27.7823Z" fill="tomato"></path>
<path d="M28.8312 6.89002C30.557 17.3821 38.7689 26.054 49.2381 27.7826L50.7753 28.0345C51.7354 28.1948 52.6097 27.4507 52.6097 26.4718V10.0211C52.6097 7.78869 51.2668 5.78529 49.2038 4.93814C45.0436 3.23238 37.5803 0.622239 29.6655 0.00404612C28.6483 -0.07609 28.1282 1.05154 28.2483 1.84145L28.8254 6.8843L28.8312 6.89002Z" fill="tomato"></path>
<path d="M49.2301 32.3907C34.915 35.2184 28.2689 44.7488 28.2689 62.7909C28.2689 63.6953 29.166 64.3249 29.9204 63.8212C36.5036 59.3737 50.9902 47.7654 52.4818 33.2436C52.5389 31.4176 50.2588 32.2762 49.2301 32.3907Z" fill="tomato"></path>
<path d="M3.37691 32.3907C17.6921 35.2184 24.3382 44.7488 24.3382 62.7909C24.3382 63.6953 23.441 64.3249 22.6867 63.8212C16.1034 59.3737 1.6168 47.7654 0.125285 33.2436C0.0681382 31.4176 2.34828 32.2762 3.37691 32.3907Z" fill="tomato"></path>
</symbol><symbol id="contact-facebook" viewBox="0 0 32 32">
<path d="M19.887 7.817h2.238V3.921a27.813 27.813 0 0 0-3.144-.171h-.12.006c-3.226 0-5.435 2.029-5.435 5.758v3.43H9.875v4.355h3.557v10.958h4.363V17.295h3.414l.543-4.355h-3.958V9.937c0-1.258.339-2.119 2.093-2.119z"></path>
</symbol><symbol id="contact-github" viewBox="0 0 32 32">
<path d="M16 3.395c-7.137 0-12.924 5.786-12.924 12.924 0 5.71 3.703 10.555 8.839 12.263.646.119.884-.28.884-.622 0-.308-.012-1.326-.018-2.406-3.596.782-4.354-1.525-4.354-1.525-.588-1.494-1.435-1.891-1.435-1.891-1.173-.802.089-.786.089-.786 1.297.091 1.981 1.332 1.981 1.332 1.153 1.976 3.023 1.405 3.761 1.074.116-.835.451-1.405.821-1.729-2.871-.326-5.889-1.435-5.889-6.387 0-1.411.505-2.564 1.332-3.469-.134-.325-.577-1.64.125-3.42 0 0 1.086-.347 3.555 1.325a12.362 12.362 0 0 1 3.235-.435c1.098.005 2.204.149 3.237.435 2.467-1.672 3.55-1.325 3.55-1.325.703 1.78.261 3.095.127 3.42.829.905 1.331 2.058 1.331 3.469 0 4.964-3.023 6.056-5.901 6.377.464.401.877 1.187.877 2.393 0 1.729-.015 3.121-.015 3.547 0 .344.233.747.888.62 5.133-1.711 8.831-6.553 8.831-12.262 0-7.138-5.787-12.924-12.924-12.924z"></path>
</symbol><symbol id="contact-instagram" viewBox="0 0 32 32">
<path d="M28.185 10.954c-.057-1.302-.267-2.196-.568-2.972a6.01 6.01 0 0 0-1.416-2.172l-.001-.001a6.065 6.065 0 0 0-2.127-1.399l-.041-.014c-.78-.302-1.67-.511-2.972-.568-1.311-.063-1.727-.077-5.055-.077-3.326 0-3.742.015-5.049.072-1.301.057-2.196.267-2.971.568a6.027 6.027 0 0 0-2.174 1.416l-.001.001a6.033 6.033 0 0 0-1.397 2.127l-.014.041c-.302.78-.512 1.67-.57 2.972-.063 1.311-.077 1.727-.077 5.055 0 3.326.015 3.742.072 5.049.057 1.302.268 2.196.57 2.972.326.85.808 1.575 1.416 2.172l.001.001a6.026 6.026 0 0 0 2.168 1.411c.78.302 1.671.513 2.972.57 1.307.057 1.723.072 5.049.072 3.327 0 3.744-.015 5.049-.072 1.302-.057 2.196-.267 2.972-.568a6.311 6.311 0 0 0 3.571-3.543l.015-.042c.302-.78.512-1.671.57-2.972.057-1.307.071-1.723.071-5.049s-.005-3.742-.061-5.049zM25.98 20.957c-.054 1.197-.255 1.842-.421 2.274a4.092 4.092 0 0 1-2.3 2.315l-.028.009c-.429.168-1.08.369-2.272.421-1.292.057-1.68.072-4.949.072s-3.661-.015-4.949-.072c-1.197-.053-1.842-.253-2.274-.421a3.801 3.801 0 0 1-1.406-.913l-.001-.001a3.822 3.822 0 0 1-.907-1.38l-.008-.026c-.167-.431-.367-1.082-.42-2.274-.057-1.292-.072-1.68-.072-4.949s.015-3.663.072-4.949c.053-1.197.253-1.842.42-2.274a3.741 3.741 0 0 1 .917-1.406l.002-.002a3.803 3.803 0 0 1 1.383-.905l.026-.008c.429-.168 1.08-.367 2.272-.421 1.292-.057 1.68-.071 4.949-.071 3.273 0 3.661.015 4.949.071 1.197.053 1.842.253 2.274.421a3.757 3.757 0 0 1 1.406.914c.407.398.718.876.915 1.409.167.429.367 1.08.42 2.272.057 1.292.072 1.68.072 4.949s-.015 3.651-.072 4.944z"></path>
<path d="M16.005 9.709a6.295 6.295 0 0 0-6.292 6.294 6.295 6.295 0 0 0 12.588.006v-.007a6.295 6.295 0 0 0-6.294-6.294zm0 10.375a4.082 4.082 0 1 1 .001-8.166h.001a4.083 4.083 0 1 1 0 8.168zm8.013-10.623a1.47 1.47 0 1 1-2.94 0 1.47 1.47 0 1 1 2.94 0z"></path>
</symbol><symbol id="contact-linkedin" viewBox="0 2 32 32">
<path d="M13.119 12.399h3.987v2.043h.057c.555-.995 1.912-2.043 3.936-2.043 4.208 0 4.986 2.62 4.986 6.027v6.939h-4.156v-6.152c0-1.467-.03-3.354-2.162-3.354-2.165 0-2.494 1.598-2.494 3.248v6.258h-4.154V12.399zM5.915 12.399h4.322v12.966H5.915V12.399zM10.237 8.797a2.161 2.161 0 1 1-4.322 0 2.161 2.161 0 0 1 4.322 0z"></path>
</symbol><symbol id="contact-mail" viewBox="0 0 30 30">
<path d="M26.071 7.776H5.929a2.495 2.495 0 0 0-2.492 2.492v11.465a2.495 2.495 0 0 0 2.492 2.492h20.142a2.495 2.495 0 0 0 2.492-2.492V10.268a2.495 2.495 0 0 0-2.492-2.492zm.831 2.492v11.465a.814.814 0 0 1-.091.361l-5.872-5.872 5.962-5.962.001.009zM5.098 21.732V10.267l.001-.009 5.962 5.962-5.872 5.872a.814.814 0 0 1-.091-.361zm11.159-3.179a.372.372 0 0 1-.513 0L6.628 9.437h18.745l-9.116 9.116zm-4.021-1.158 2.333 2.333c.382.382.891.593 1.431.593s1.048-.21 1.431-.593l2.333-2.333 5.167 5.168H7.069l5.168-5.168z"></path>
</symbol><symbol id="contact-map" viewBox="0 0 32 32">
<path d="M16 3.75c-4.232 0-7.661 3.415-7.661 7.646C8.339 18.711 16 28.25 16 28.25s7.661-9.541 7.661-16.854c0-4.229-3.429-7.646-7.661-7.646zm0 11.876a4.137 4.137 0 1 1 0-8.273 4.137 4.137 0 0 1 0 8.273z"></path>
</symbol><symbol id="contact-phone" viewBox="0 0 36 36">
<path d="M21.716 18.45c-1.633 1.633-1.633 3.267-3.267 3.267s-3.267-1.633-4.9-3.267-3.267-3.267-3.267-4.9 1.633-1.633 3.267-3.267-3.267-6.533-4.9-6.533-4.9 4.9-4.9 4.9c0 3.267 3.356 9.889 6.533 13.067s9.8 6.533 13.067 6.533c0 0 4.9-3.267 4.9-4.9s-4.9-6.533-6.533-4.9z"></path>
</symbol><symbol id="contact-telegram" viewBox="1 0 32 32">
<path d="M25.843 5.623a2.678 2.678 0 0 0-.83.198h-.003c-.253.101-1.458.607-3.289 1.375L15.158 9.96c-4.709 1.983-9.338 3.935-9.338 3.935l.055-.021s-.319.105-.652.333a1.813 1.813 0 0 0-.521.504c-.164.24-.295.607-.246.987.08.642.496 1.027.795 1.239.302.215.59.316.59.316h.007l4.341 1.463c.195.625 1.323 4.334 1.594 5.188.16.511.316.83.511 1.073.094.124.204.229.337.312.069.04.142.072.219.094l-.045-.011c.014.003.024.014.034.018.036.01.06.013.105.02.687.208 1.239-.219 1.239-.219l.031-.025 2.563-2.333 4.296 3.296.098.042c.895.393 1.802.174 2.281-.212.483-.389.67-.885.67-.885l.031-.08 3.319-17.006c.094-.42.118-.813.014-1.194a1.605 1.605 0 0 0-.695-.931 1.667 1.667 0 0 0-.949-.24zm-.09 1.823c-.003.056.007.05-.018.158v.01l-3.288 16.829c-.014.024-.038.076-.104.129-.069.055-.124.09-.413-.025l-5.254-4.028-3.174 2.893.667-4.259 8.584-8.001c.354-.329.235-.398.235-.398.025-.404-.534-.118-.534-.118L11.63 17.342l-.003-.018-5.202-1.753a.306.306 0 0 0 .027-.011l.028-.014.028-.01 9.341-3.935c2.358-.993 4.733-1.993 6.56-2.765 1.084-.456 2.168-.909 3.254-1.36.073-.028.038-.028.091-.028v-.001z"></path>
</symbol><symbol id="contact-twitter" viewBox="0 0 32 32">
<path d="M27.387 8.938a9.194 9.194 0 0 1-2.682.734 4.693 4.693 0 0 0 2.054-2.584 9.381 9.381 0 0 1-2.967 1.134 4.673 4.673 0 0 0-3.411-1.472 4.67 4.67 0 0 0-4.55 5.733A13.26 13.26 0 0 1 6.203 7.6a4.664 4.664 0 0 0-.631 2.348c0 1.619.823 3.05 2.077 3.887a4.662 4.662 0 0 1-2.117-.583v.058a4.67 4.67 0 0 0 3.749 4.58 4.667 4.667 0 0 1-2.112.079 4.689 4.689 0 0 0 4.362 3.247 9.37 9.37 0 0 1-6.919 1.935 13.212 13.212 0 0 0 7.165 2.099c8.592 0 13.292-7.12 13.292-13.292 0-.204-.004-.405-.013-.605a9.374 9.374 0 0 0 2.33-2.415z"></path>
</symbol><symbol id="contact-whatsapp" viewBox="0 0 32 32">
<path d="M24.635 7.31a12.047 12.047 0 0 0-8.59-3.56C9.355 3.75 3.91 9.195 3.91 15.89c0 2.139.56 4.23 1.622 6.068l-1.723 6.293 6.436-1.689a12.146 12.146 0 0 0 5.8 1.478h.005c6.69 0 12.14-5.446 12.14-12.14 0-3.245-1.263-6.293-3.556-8.59zm-8.584 18.681c-1.814 0-3.589-.488-5.14-1.406l-.368-.221-3.818 1 1.019-3.723-.24-.383a10.024 10.024 0 0 1-1.546-5.369c0-5.565 4.526-10.092 10.097-10.092 2.694 0 5.23 1.053 7.135 2.957a10.034 10.034 0 0 1 2.952 7.139c-.005 5.57-4.532 10.097-10.092 10.097zm5.531-7.56c-.302-.153-1.795-.885-2.072-.986s-.479-.153-.684.153c-.201.302-.785.986-.962 1.191-.177.201-.354.23-.655.077s-1.282-.474-2.441-1.508c-.9-.804-1.512-1.799-1.689-2.101s-.019-.469.134-.617c.139-.134.302-.354.455-.531s.201-.302.302-.507c.1-.201.053-.378-.024-.531s-.684-1.646-.933-2.254c-.244-.593-.498-.512-.684-.521-.177-.009-.378-.009-.579-.009s-.531.077-.809.378c-.278.302-1.062 1.038-1.062 2.531s1.086 2.933 1.24 3.139c.153.201 2.139 3.268 5.183 4.579.723.311 1.287.498 1.727.641.727.23 1.388.196 1.909.119.583-.087 1.795-.732 2.048-1.44s.253-1.316.177-1.44c-.072-.134-.273-.211-.579-.364z"></path>
</symbol><symbol id="menu-burger" viewBox="0 0 32 32">
<path d="M5.993 11.552V9.328h20.015v2.224H5.993zm0 5.56h20.015v-2.224H5.993v2.224zm0 5.56h20.015v-2.224H5.993v2.224z"></path>
</symbol><symbol id="menu-home" viewBox="0 0 486.196 486.196">
<path d="M481.708,220.456l-228.8-204.6c-0.4-0.4-0.8-0.7-1.3-1c-5-4.8-13-5-18.3-0.3l-228.8,204.6c-5.6,5-6,13.5-1.1,19.1
c2.7,3,6.4,4.5,10.1,4.5c3.2,0,6.4-1.1,9-3.4l41.2-36.9v7.2v106.8v124.6c0,18.7,15.2,34,34,34c0.3,0,0.5,0,0.8,0s0.5,0,0.8,0h70.6
c17.6,0,31.9-14.3,31.9-31.9v-121.3c0-2.7,2.2-4.9,4.9-4.9h72.9c2.7,0,4.9,2.2,4.9,4.9v121.3c0,17.6,14.3,31.9,31.9,31.9h72.2
c19,0,34-18.7,34-42.6v-111.2v-34v-83.5l41.2,36.9c2.6,2.3,5.8,3.4,9,3.4c3.7,0,7.4-1.5,10.1-4.5
C487.708,233.956,487.208,225.456,481.708,220.456z M395.508,287.156v34v111.1c0,9.7-4.8,15.6-7,15.6h-72.2c-2.7,0-4.9-2.2-4.9-4.9
v-121.1c0-17.6-14.3-31.9-31.9-31.9h-72.9c-17.6,0-31.9,14.3-31.9,31.9v121.3c0,2.7-2.2,4.9-4.9,4.9h-70.6c-0.3,0-0.5,0-0.8,0
s-0.5,0-0.8,0c-3.8,0-7-3.1-7-7v-124.7v-106.8v-31.3l151.8-135.6l153.1,136.9L395.508,287.156L395.508,287.156z"></path>
</symbol><symbol id="menu-logout" viewBox="0 0 384.971 384.971">
<path d="M180.455,360.91H24.061V24.061h156.394c6.641,0,12.03-5.39,12.03-12.03s-5.39-12.03-12.03-12.03H12.03
C5.39,0.001,0,5.39,0,12.031V372.94c0,6.641,5.39,12.03,12.03,12.03h168.424c6.641,0,12.03-5.39,12.03-12.03
C192.485,366.299,187.095,360.91,180.455,360.91z"></path>
<path d="M381.481,184.088l-83.009-84.2c-4.704-4.752-12.319-4.74-17.011,0c-4.704,4.74-4.704,12.439,0,17.179l62.558,63.46H96.279
c-6.641,0-12.03,5.438-12.03,12.151c0,6.713,5.39,12.151,12.03,12.151h247.74l-62.558,63.46c-4.704,4.752-4.704,12.439,0,17.179
c4.704,4.752,12.319,4.752,17.011,0l82.997-84.2C386.113,196.588,386.161,188.756,381.481,184.088z"></path>
</symbol><symbol id="ui-add_company" viewBox="0 0 24 24"><path d="M23 6.5C23 3.46243 20.5376 1 17.5 1C14.4624 1 12 3.46243 12 6.5C12 9.53757 14.4624 12 17.5 12C20.5376 12 23 9.53757 23 6.5ZM18.0006 7.00001L18.0011 9.50352C18.0011 9.77966 17.7773 10.0035 17.5011 10.0035C17.225 10.0035 17.0011 9.77966 17.0011 9.50352L17.0006 7.00001H14.4961C14.22 7.00001 13.9961 6.77615 13.9961 6.50001C13.9961 6.22387 14.22 6.00001 14.4961 6.00001H17.0005L17 3.49927C17 3.22313 17.2239 2.99927 17.5 2.99927C17.7761 2.99927 18 3.22313 18 3.49927L18.0005 6.00001H20.503C20.7792 6.00001 21.003 6.22387 21.003 6.50001C21.003 6.77615 20.7792 7.00001 20.503 7.00001H18.0006Z" fill="#212121"></path><path d="M19.5 19.747V12.6865C20.0335 12.5142 20.5368 12.2747 21 11.9782V19.747C21 20.7135 20.2165 21.497 19.25 21.497H15.75C14.7835 21.497 14 20.7135 14 19.747V14.247C14 14.1089 13.8881 13.997 13.75 13.997H10.25C10.1119 13.997 9.99999 14.1089 9.99999 14.247V19.747C9.99999 20.7135 9.2165 21.497 8.25 21.497H4.75C3.7835 21.497 3 20.7135 3 19.747V9.94425C3 9.28109 3.29255 8.6517 3.79952 8.22419L10.5495 2.53208C11.1612 2.01623 11.9793 1.87698 12.7025 2.11432C12.3057 2.54807 11.967 3.0358 11.6987 3.56521C11.6341 3.59353 11.5727 3.63139 11.5165 3.67878L4.76651 9.37089C4.59752 9.5134 4.5 9.72319 4.5 9.94425V19.747C4.5 19.8851 4.61193 19.997 4.75 19.997H8.25C8.38807 19.997 8.49999 19.8851 8.49999 19.747V14.247C8.49999 13.2805 9.2835 12.497 10.25 12.497H13.75C14.7165 12.497 15.5 13.2805 15.5 14.247V19.747C15.5 19.8851 15.6119 19.997 15.75 19.997H19.25C19.3881 19.997 19.5 19.8851 19.5 19.747Z" fill="#212121"></path></symbol><symbol id="ui-add_user" viewBox="-1 0 24 24"><path d="M17.5004 12.0003C20.5379 12.0003 23.0004 14.4627 23.0004 17.5003C23.0004 20.5378 20.5379 23.0003 17.5004 23.0003C14.4628 23.0003 12.0004 20.5378 12.0004 17.5003C12.0004 14.4627 14.4628 12.0003 17.5004 12.0003ZM12.0226 13.9996C11.7259 14.4629 11.4864 14.9663 11.314 15.4999L4.25278 15.5002C3.83919 15.5002 3.50391 15.8355 3.50391 16.2491V16.8267C3.50391 17.3624 3.69502 17.8805 4.04287 18.2878C5.29618 19.7555 7.26206 20.5013 10.0004 20.5013C10.5968 20.5013 11.1567 20.4659 11.6806 20.3954C11.9258 20.8903 12.2333 21.3489 12.5921 21.7618C11.7966 21.922 10.9317 22.0013 10.0004 22.0013C6.8545 22.0013 4.46849 21.0962 2.90219 19.2619C2.32242 18.583 2.00391 17.7195 2.00391 16.8267V16.2491C2.00391 15.007 3.01076 14.0002 4.25278 14.0002L12.0226 13.9996ZM17.5004 14.0002L17.4105 14.0083C17.2064 14.0453 17.0455 14.2063 17.0084 14.4104L17.0004 14.5002L16.9994 17.0003H14.5043L14.4144 17.0083C14.2103 17.0454 14.0494 17.2063 14.0123 17.4104L14.0043 17.5003L14.0123 17.5901C14.0494 17.7942 14.2103 17.9552 14.4144 17.9922L14.5043 18.0003H16.9994L17.0004 20.5002L17.0084 20.5901C17.0455 20.7942 17.2064 20.9551 17.4105 20.9922L17.5004 21.0002L17.5902 20.9922C17.7943 20.9551 17.9553 20.7942 17.9923 20.5901L18.0004 20.5002L17.9994 18.0003H20.5043L20.5941 17.9922C20.7982 17.9552 20.9592 17.7942 20.9962 17.5901L21.0043 17.5003L20.9962 17.4104C20.9592 17.2063 20.7982 17.0454 20.5941 17.0083L20.5043 17.0003H17.9994L18.0004 14.5002L17.9923 14.4104C17.9553 14.2063 17.7943 14.0453 17.5902 14.0083L17.5004 14.0002ZM10.0004 2.00488C12.7618 2.00488 15.0004 4.24346 15.0004 7.00488C15.0004 9.76631 12.7618 12.0049 10.0004 12.0049C7.23894 12.0049 5.00036 9.76631 5.00036 7.00488C5.00036 4.24346 7.23894 2.00488 10.0004 2.00488ZM10.0004 3.50488C8.06737 3.50488 6.50036 5.07189 6.50036 7.00488C6.50036 8.93788 8.06737 10.5049 10.0004 10.5049C11.9334 10.5049 13.5004 8.93788 13.5004 7.00488C13.5004 5.07189 11.9334 3.50488 10.0004 3.50488Z" fill="#212121"></path></symbol><symbol id="ui-check" viewBox="0 0 512 512"><path d="M480 128c0 8.188-3.125 16.38-9.375 22.62l-256 256C208.4 412.9 200.2 416 192 416s-16.38-3.125-22.62-9.375l-128-128C35.13 272.4 32 264.2 32 256c0-18.28 14.95-32 32-32c8.188 0 16.38 3.125 22.62 9.375L192 338.8l233.4-233.4C431.6 99.13 439.8 96 448 96C465.1 96 480 109.7 480 128z"></path></symbol><symbol id="ui-circle_check" viewBox="0 0 24 24"><path d="M12,23 C5.92486775,23 1,18.0751322 1,12 C1,5.92486775 5.92486775,1 12,1 C18.0751322,1 23,5.92486775 23,12 C23,18.0751322 18.0751322,23 12,23 Z M12,21 C16.9705627,21 21,16.9705627 21,12 C21,7.02943725 16.9705627,3 12,3 C7.02943725,3 3,7.02943725 3,12 C3,16.9705627 7.02943725,21 12,21 Z M10,13.5857864 L15.2928932,8.29289322 L16.7071068,9.70710678 L10,16.4142136 L6.29289322,12.7071068 L7.70710678,11.2928932 L10,13.5857864 Z" fill-rule="evenodd"></path></symbol><symbol id="ui-circle_uncheck" viewBox="0 0 24 24"><path d="M12,23 C5.92486775,23 1,18.0751322 1,12 C1,5.92486775 5.92486775,1 12,1 C18.0751322,1 23,5.92486775 23,12 C23,18.0751322 18.0751322,23 12,23 Z M12,21 C16.9705627,21 21,16.9705627 21,12 C21,7.02943725 16.9705627,3 12,3 C7.02943725,3 3,7.02943725 3,12 C3,16.9705627 7.02943725,21 12,21 Z" fill-rule="evenodd"></path></symbol><symbol id="ui-cross" viewBox="0 0 32 32"><path d="M18.83,16l8.59-8.59a2,2,0,0,0-2.83-2.83L16,13.17,7.41,4.59A2,2,0,0,0,4.59,7.41L13.17,16,4.59,24.59a2,2,0,1,0,2.83,2.83L16,18.83l8.59,8.59a2,2,0,0,0,2.83-2.83Z"></path></symbol><symbol id="ui-edit" viewBox="0 0 32 32"><path d="M2,29a1,1,0,0,1-1-1.11l.77-7a1,1,0,0,1,.29-.59L18.42,3.94a3.2,3.2,0,0,1,4.53,0l3.11,3.11a3.2,3.2,0,0,1,0,4.53L9.71,27.93a1,1,0,0,1-.59.29l-7,.77Zm7-1.78H9ZM3.73,21.45l-.6,5.42,5.42-.6,16.1-16.1a1.2,1.2,0,0,0,0-1.7L21.53,5.35a1.2,1.2,0,0,0-1.7,0Z"></path><path d="M23,14.21a1,1,0,0,1-.71-.29L16.08,7.69A1,1,0,0,1,17.5,6.27l6.23,6.23a1,1,0,0,1,0,1.42A1,1,0,0,1,23,14.21Z"></path><rect height="2" transform="translate(-8.31 14.13) rotate(-45)" width="11.01" x="7.39" y="16.1"></rect><path d="M30,29H14a1,1,0,0,1,0-2H30a1,1,0,0,1,0,2Z"></path></symbol><symbol id="ui-exclamation" viewBox="0 0 128 512"><path d="M64 352c17.69 0 32-14.32 32-31.1V64.01c0-17.67-14.31-32.01-32-32.01S32 46.34 32 64.01v255.1C32 337.7 46.31 352 64 352zM64 400c-22.09 0-40 17.91-40 40s17.91 39.1 40 39.1s40-17.9 40-39.1S86.09 400 64 400z"></path></symbol><symbol id="ui-invisible" viewBox="0 0 24 24"><path d="M7 6.36185C8.36209 5.55936 10.0212 5 12 5C18.3074 5 21.3671 10.6832 21.9109 11.808C21.9705 11.9311 21.9702 12.0694 21.9107 12.1926C21.5585 12.9208 20.1542 15.5545 17.5 17.3244M14 18.8001C13.3735 18.9286 12.7071 19 12 19C5.69265 19 2.63286 13.3168 2.08909 12.192C2.02953 12.0689 2.03049 11.9291 2.09008 11.8059C2.30875 11.3539 2.9298 10.1741 4 8.92114" stroke="black" stroke-linecap="round" stroke-linejoin="round" stroke-width="2"></path><path d="M10 9.76389C10.5308 9.28885 11.2316 9 12 9C13.6569 9 15 10.3431 15 12C15 12.7684 14.7111 13.4692 14.2361 14" stroke="black" stroke-linecap="round" stroke-linejoin="round" stroke-width="2"></path><path d="M3 3L21 21" stroke="black" stroke-linecap="round" stroke-linejoin="round" stroke-width="2"></path></symbol><symbol id="ui-invite" viewBox="1 0 30 32"><polygon points="22,32 4,32 4,26 6,26 6,30 20,30 20,10 6,10 6,16 4,16 4,8 22,8   "></polygon><path d="M13,20c-1.654,0-3-1.346-3-3s1.346-3,3-3s3,1.346,3,3S14.654,20,13,20z M13,16    c-0.552,0-1,0.448-1,1s0.448,1,1,1s1-0.448,1-1S13.552,16,13,16z"></path><polygon points="18,26 16,26 16,24.414 14.586,23 11.414,23 10,24.414 10,26 8,26 8,23.586 10.586,21     15.414,21 18,23.586   "></polygon><polygon points="26,28 24,28 24,6 8,6 8,4 26,4   "></polygon><polygon points="30,24 28,24 28,2 12,2 12,0 30,0   "></polygon><rect height="2" width="6" y="20"></rect><rect height="6" width="2" x="2" y="18"></rect></symbol><symbol id="ui-mail" viewBox="0 0 28 28">
<path d="M25.056 6.944H6.944a2.262 2.262 0 0 0-2.253 2.264L4.68 22.792a2.27 2.27 0 0 0 2.264 2.264h18.112a2.27 2.27 0 0 0 2.264-2.264V9.208a2.27 2.27 0 0 0-2.264-2.264zm-.453 4.811L16.6 16.758a1.147 1.147 0 0 1-1.2 0l-8.003-5.003a.962.962 0 1 1 1.019-1.63L16 14.868l7.584-4.743a.962.962 0 1 1 1.019 1.63z"></path>
</symbol><symbol id="ui-name" viewBox="0 0 30 30">
<path d="M16 16c3.315 0 6-2.685 6-6s-2.685-6-6-6-6 2.685-6 6 2.685 6 6 6zm0 3c-4.005 0-12 2.01-12 6v1.5c0 .825.675 1.5 1.5 1.5h21c.825 0 1.5-.675 1.5-1.5V25c0-3.99-7.995-6-12-6z"></path>
</symbol><symbol id="ui-phone" viewBox="0 0 30 30">
<path d="M21.716 18.45c-1.633 1.633-1.633 3.267-3.267 3.267s-3.267-1.633-4.9-3.267-3.267-3.267-3.267-4.9 1.633-1.633 3.267-3.267-3.267-6.533-4.9-6.533-4.9 4.9-4.9 4.9c0 3.267 3.356 9.889 6.533 13.067s9.8 6.533 13.067 6.533c0 0 4.9-3.267 4.9-4.9s-4.9-6.533-6.533-4.9z"></path>
</symbol><symbol id="ui-plus" viewBox="0 0 512 512"><path d="M417.4,224H288V94.6c0-16.9-14.3-30.6-32-30.6c-17.7,0-32,13.7-32,30.6V224H94.6C77.7,224,64,238.3,64,256  c0,17.7,13.7,32,30.6,32H224v129.4c0,16.9,14.3,30.6,32,30.6c17.7,0,32-13.7,32-30.6V288h129.4c16.9,0,30.6-14.3,30.6-32  C448,238.3,434.3,224,417.4,224z"></path></symbol><symbol id="ui-request" viewBox="0 0 128 128"><path d="M116.2,62.9L59.8,86.8c-4.3,1.8-9.1,1.7-13.2-0.3l-27.8-14l-3.6,7.1l27.9,14C46.4,95.2,50,96,53.6,96   c3.2,0,6.4-0.6,9.3-1.9l56.4-23.8c3-1.3,5.3-3.7,6.5-6.7c1.2-3.1,1.1-6.4-0.3-9.4c-2.7-5.8-9.8-8.5-15.9-5.9l-3.5,1.5l0,0l-17,7.2   l3.1,7.4l17-7.2l0,0l3.5-1.5c2.1-0.9,4.6-0.1,5.5,1.9c0.5,1,0.5,2.1,0.1,3.1C117.9,61.7,117.2,62.5,116.2,62.9z"></path><path d="M9,56.9l9.4-7.8c5.4-4.1,12-5.9,18.7-5.1c2.7,0.3,5.2,1,7.6,2.1l25.9,11.5c0.7,0.3,1.3,0.8,1.7,1.5l0,0l0,0   c0.7,1.1,0.8,2.5,0.3,3.8c-0.2,0.4-0.4,0.7-0.6,1c-1.2,1.3-3,1.7-4.6,1l-20-8.9l-3.3,7.3l20,8.9c1.6,0.7,3.3,1.1,4.9,1.1   c3.4,0,6.6-1.4,9-4.1c0.8-0.9,1.5-1.9,2-3c1.6-3.7,1.3-7.9-0.8-11.3c-1.3-2-3.1-3.6-5.2-4.5L48,38.8c-3.1-1.4-6.5-2.3-9.9-2.7   c-8.8-1-17.5,1.4-24.5,6.7L1,53.1V97h8V56.9z"></path></symbol><symbol id="ui-trash" viewBox="0 0 448 512"><path d="M432 80h-82.38l-34-56.75C306.1 8.827 291.4 0 274.6 0H173.4C156.6 0 141 8.827 132.4 23.25L98.38 80H16C7.125 80 0 87.13 0 96v16C0 120.9 7.125 128 16 128H32v320c0 35.35 28.65 64 64 64h256c35.35 0 64-28.65 64-64V128h16C440.9 128 448 120.9 448 112V96C448 87.13 440.9 80 432 80zM171.9 50.88C172.9 49.13 174.9 48 177 48h94c2.125 0 4.125 1.125 5.125 2.875L293.6 80H154.4L171.9 50.88zM352 464H96c-8.837 0-16-7.163-16-16V128h288v320C368 456.8 360.8 464 352 464zM224 416c8.844 0 16-7.156 16-16V192c0-8.844-7.156-16-16-16S208 183.2 208 192v208C208 408.8 215.2 416 224 416zM144 416C152.8 416 160 408.8 160 400V192c0-8.844-7.156-16-16-16S128 183.2 128 192v208C128 408.8 135.2 416 144 416zM304 416c8.844 0 16-7.156 16-16V192c0-8.844-7.156-16-16-16S288 183.2 288 192v208C288 408.8 295.2 416 304 416z"></path></symbol><symbol id="ui-visible" viewBox="0 0 24 24"><path d="M12 5C5.69265 5 2.63286 10.6832 2.08909 11.808C2.02953 11.9311 2.02953 12.0689 2.08909 12.192C2.63286 13.3168 5.69265 19 12 19C18.3074 19 21.3671 13.3168 21.9109 12.192C21.9705 12.0689 21.9705 11.9311 21.9109 11.808C21.3671 10.6832 18.3074 5 12 5Z" stroke="black" stroke-linecap="round" stroke-linejoin="round" stroke-width="2"></path><circle cx="12" cy="12" r="3" stroke="black" stroke-linecap="round" stroke-linejoin="round" stroke-width="2"></circle></symbol></svg>